<?xml version="1.0" standalone="no"?>
<!DOCTYPE svg PUBLIC "-//W3C//DTD SVG 20010904//EN"
 "http://www.w3.org/TR/2001/REC-SVG-20010904/DTD/svg10.dtd">
<svg version="1.0" xmlns="http://www.w3.org/2000/svg"
 width="474.000000pt" height="474.000000pt" viewBox="0 0 474.000000 474.000000"
 preserveAspectRatio="xMidYMid meet">

<g transform="translate(0.000000,474.000000) scale(0.100000,-0.100000)"
fill="#000000" stroke="none">
<path d="M2833 2751 c-124 -42 -188 -119 -188 -227 0 -50 5 -68 27 -100 40
-58 116 -99 244 -132 61 -16 120 -35 132 -41 53 -28 48 -90 -9 -110 -80 -28
-178 5 -214 71 l-20 38 -89 0 -88 0 7 -37 c17 -92 83 -174 174 -216 38 -18 65
-22 156 -22 101 0 115 2 168 29 101 49 150 142 129 245 -22 103 -79 146 -269
200 -134 38 -157 50 -161 82 -5 40 29 62 102 67 56 4 65 1 93 -22 18 -15 35
-36 38 -46 6 -18 16 -20 96 -20 86 0 89 1 89 23 0 37 -45 120 -87 160 -75 72
-218 97 -330 58z"/>
<path d="M362 2677 c-45 -45 -82 -85 -82 -88 0 -4 55 -7 123 -7 67 -1 125 -1
130 -2 4 0 7 -135 7 -300 l0 -300 90 0 90 0 0 300 c0 233 3 300 13 301 6 0 67
0 135 -1 l122 -1 0 90 0 91 -273 0 -272 0 -83 -83z"/>
<path d="M1530 2370 l0 -390 288 2 287 3 0 84 0 83 -195 2 -195 1 -3 68 -3 67
166 0 165 0 0 80 0 80 -165 0 -166 0 3 66 3 65 195 2 195 2 0 85 0 85 -287 3
-288 2 0 -390z"/>
<path d="M3734 2747 c-3 -8 -4 -47 -2 -88 l3 -74 133 -3 132 -3 0 -300 0 -300
93 3 92 3 3 298 2 297 23 1 c63 2 78 7 98 29 12 14 49 53 83 88 l60 62 -357 0
c-290 0 -359 -3 -363 -13z"/>
</g>
</svg>
